<?xml version="1.0" standalone="no"?>
<!DOCTYPE svg PUBLIC "-//W3C//DTD SVG 20010904//EN"
 "http://www.w3.org/TR/2001/REC-SVG-20010904/DTD/svg10.dtd">
<svg version="1.0" xmlns="http://www.w3.org/2000/svg"
 width="1200.000000pt" height="1200.000000pt" viewBox="0 0 1200.000000 1200.000000"
 preserveAspectRatio="xMidYMid meet">
<metadata>
Created by potrace 1.14, written by Peter Selinger 2001-2017
</metadata>
<g transform="translate(0.000000,1200.000000) scale(0.100000,-0.100000)"
fill="#000000" stroke="none">
<path d="M5645 11993 c-22 -1 -98 -8 -170 -13 -125 -11 -262 -27 -427 -51
l-78 -11 0 -1924 c0 -1058 3 -1924 7 -1924 4 0 622 614 1373 1363 1267 1266
1370 1366 1435 1400 92 47 175 67 273 67 108 0 171 -14 269 -61 144 -69 252
-194 304 -354 32 -97 33 -250 2 -350 -45 -143 -69 -172 -470 -570 -206 -203
-373 -373 -373 -377 0 -5 465 -8 1033 -8 1004 0 1036 -1 1113 -20 187 -48 351
-201 416 -388 33 -97 33 -277 -1 -375 -65 -190 -225 -338 -416 -387 -77 -20
-110 -20 -1714 -20 l-1636 0 -435 -436 -435 -436 1330 -1324 c731 -728 1332
-1320 1336 -1316 4 4 105 343 225 754 120 411 219 746 221 744 8 -8 1402
-4200 1398 -4204 -4 -5 -4186 1387 -4197 1397 -4 4 331 105 745 226 413 120
754 220 757 222 6 5 -1523 1533 -1535 1533 -5 0 -649 -638 -1430 -1418 -1393
-1392 -1421 -1420 -1496 -1456 -219 -105 -464 -81 -647 63 -183 145 -268 427
-193 648 47 140 58 152 695 791 l601 602 -380 380 -380 380 -1357 0 c-747 0
-1358 -3 -1358 -7 0 -5 11 -71 24 -148 167 -970 570 -1885 1170 -2655 229
-295 562 -647 816 -864 1329 -1137 3013 -1641 4730 -1415 1168 154 2257 647
3160 1433 147 127 437 418 566 566 969 1111 1484 2486 1484 3955 -1 761 -134
1476 -405 2170 -606 1548 -1823 2778 -3365 3397 -572 229 -1138 361 -1781 413
-163 13 -677 19 -804 8z"/>
<path d="M3650 11529 c-485 -209 -950 -484 -1358 -804 l-102 -80 787 -787
c434 -434 791 -788 795 -788 5 0 8 565 8 1255 0 690 -3 1255 -7 1254 -5 0 -60
-23 -123 -50z"/>
<path d="M1263 9697 c-734 -939 -1185 -2106 -1259 -3259 l-7 -108 782 0 c429
0 781 3 781 7 0 4 -141 149 -313 323 -272 274 -318 324 -349 385 -48 93 -68
175 -68 278 0 112 14 174 60 274 51 109 145 204 259 261 104 52 169 65 300 60
117 -5 184 -24 280 -80 41 -24 393 -369 1346 -1320 710 -709 1295 -1288 1300
-1288 6 0 183 173 395 385 l385 385 -450 451 c-248 248 -1105 1102 -1906 1899
l-1456 1449 -80 -102z"/>
</g>
</svg>
