<?xml version="1.0" encoding="UTF-8" standalone="no"?>
<!DOCTYPE svg PUBLIC "-//W3C//DTD SVG 1.1//EN" "http://www.w3.org/Graphics/SVG/1.1/DTD/svg11.dtd">
<svg width="100%" height="100%" viewBox="0 0 4800 1200" version="1.1" xmlns="http://www.w3.org/2000/svg" xmlns:xlink="http://www.w3.org/1999/xlink" xml:space="preserve" xmlns:serif="http://www.serif.com/" style="fill-rule:evenodd;clip-rule:evenodd;stroke-linejoin:round;stroke-miterlimit:2;">
    <path d="M1677.08,979.2C1627.16,979.2 1582.2,967.52 1542.2,944.16C1502.2,920.8 1470.52,888.96 1447.16,848.64C1423.8,808.32 1412.12,762.88 1412.12,712.32C1412.12,661.76 1422.84,616.48 1444.28,576.48C1465.72,536.48 1495,504.8 1532.12,481.44C1569.24,458.08 1611.16,446.4 1657.88,446.4C1695.64,446.4 1730.52,454.24 1762.52,469.92C1794.52,485.6 1821.4,506.88 1843.16,533.76L1843.16,274.56C1843.16,259.84 1847.8,248 1857.08,239.04C1866.36,230.08 1878.04,225.6 1892.12,225.6C1906.84,225.6 1918.68,230.08 1927.64,239.04C1936.6,248 1941.08,259.84 1941.08,274.56L1941.08,712.32C1941.08,762.88 1929.4,808.32 1906.04,848.64C1882.68,888.96 1851.16,920.8 1811.48,944.16C1771.8,967.52 1727,979.2 1677.08,979.2ZM1677.08,892.8C1709.72,892.8 1738.84,884.96 1764.44,869.28C1790.04,853.6 1810.2,832 1824.92,804.48C1839.64,776.96 1847,746.24 1847,712.32C1847,677.76 1839.64,647.04 1824.92,620.16C1810.2,593.28 1790.04,572 1764.44,556.32C1738.84,540.64 1709.72,532.8 1677.08,532.8C1645.08,532.8 1616.12,540.64 1590.2,556.32C1564.28,572 1543.8,593.28 1528.76,620.16C1513.72,647.04 1506.2,677.76 1506.2,712.32C1506.2,746.24 1513.72,776.96 1528.76,804.48C1543.8,832 1564.28,853.6 1590.2,869.28C1616.12,884.96 1645.08,892.8 1677.08,892.8Z" style="fill:#03a9f4;fill-rule:nonzero;"/>
    <path d="M2322.2,979.2C2269.08,979.2 2221.88,967.84 2180.6,945.12C2139.32,922.4 2107,891.04 2083.64,851.04C2060.28,811.04 2048.6,765.12 2048.6,713.28C2048.6,660.8 2059.64,614.56 2081.72,574.56C2103.8,534.56 2134.36,503.2 2173.4,480.48C2212.44,457.76 2257.24,446.4 2307.8,446.4C2357.72,446.4 2400.6,457.44 2436.44,479.52C2472.28,501.6 2499.64,532 2518.52,570.72C2537.4,609.44 2546.84,654.08 2546.84,704.64C2546.84,716.8 2542.68,726.88 2534.36,734.88C2526.04,742.88 2515.48,746.88 2502.68,746.88L2115.8,746.88L2115.8,670.08L2499.8,670.08L2460.44,696.96C2459.8,664.96 2453.4,636.32 2441.24,611.04C2429.08,585.76 2411.8,565.76 2389.4,551.04C2367,536.32 2339.8,528.96 2307.8,528.96C2271.32,528.96 2240.12,536.96 2214.2,552.96C2188.28,568.96 2168.6,590.88 2155.16,618.72C2141.72,646.56 2135,678.08 2135,713.28C2135,748.48 2143,779.84 2159,807.36C2175,834.88 2197.08,856.64 2225.24,872.64C2253.4,888.64 2285.72,896.64 2322.2,896.64C2342.04,896.64 2362.36,892.96 2383.16,885.6C2403.96,878.24 2420.76,869.76 2433.56,860.16C2443.16,853.12 2453.56,849.44 2464.76,849.12C2475.96,848.8 2485.72,852.16 2494.04,859.2C2504.92,868.8 2510.68,879.36 2511.32,890.88C2511.96,902.4 2506.84,912.32 2495.96,920.64C2474.2,937.92 2447.16,952 2414.84,962.88C2382.52,973.76 2351.64,979.2 2322.2,979.2Z" style="fill:#03a9f4;fill-rule:nonzero;"/>
    <path d="M3076.76,976.32C3062.68,976.32 3051,971.68 3041.72,962.4C3032.44,953.12 3027.8,941.44 3027.8,927.36L3027.8,691.2C3027.8,654.72 3021.08,624.96 3007.64,601.92C2994.2,578.88 2976.12,561.76 2953.4,550.56C2930.68,539.36 2904.6,533.76 2875.16,533.76C2848.28,533.76 2823.96,539.2 2802.2,550.08C2780.44,560.96 2763.16,575.52 2750.36,593.76C2737.56,612 2731.16,632.96 2731.16,656.64L2670.68,656.64C2670.68,616.32 2680.44,580.32 2699.96,548.64C2719.48,516.96 2746.2,491.84 2780.12,473.28C2814.04,454.72 2852.12,445.44 2894.36,445.44C2938.52,445.44 2978.04,454.88 3012.92,473.76C3047.8,492.64 3075.32,520.32 3095.48,556.8C3115.64,593.28 3125.72,638.08 3125.72,691.2L3125.72,927.36C3125.72,941.44 3121.08,953.12 3111.8,962.4C3102.52,971.68 3090.84,976.32 3076.76,976.32ZM2682.2,976.32C2668.12,976.32 2656.44,971.68 2647.16,962.4C2637.88,953.12 2633.24,941.44 2633.24,927.36L2633.24,499.2C2633.24,484.48 2637.88,472.64 2647.16,463.68C2656.44,454.72 2668.12,450.24 2682.2,450.24C2696.92,450.24 2708.76,454.72 2717.72,463.68C2726.68,472.64 2731.16,484.48 2731.16,499.2L2731.16,927.36C2731.16,941.44 2726.68,953.12 2717.72,962.4C2708.76,971.68 2696.92,976.32 2682.2,976.32Z" style="fill:#03a9f4;fill-rule:nonzero;"/>
    <path d="M3487.64,979.2C3437.72,979.2 3392.76,967.52 3352.76,944.16C3312.76,920.8 3281.08,888.96 3257.72,848.64C3234.36,808.32 3222.68,762.88 3222.68,712.32C3222.68,661.76 3233.4,616.48 3254.84,576.48C3276.28,536.48 3305.56,504.8 3342.68,481.44C3379.8,458.08 3421.72,446.4 3468.44,446.4C3506.2,446.4 3541.08,454.24 3573.08,469.92C3605.08,485.6 3631.96,506.88 3653.72,533.76L3653.72,274.56C3653.72,259.84 3658.36,248 3667.64,239.04C3676.92,230.08 3688.6,225.6 3702.68,225.6C3717.4,225.6 3729.24,230.08 3738.2,239.04C3747.16,248 3751.64,259.84 3751.64,274.56L3751.64,712.32C3751.64,762.88 3739.96,808.32 3716.6,848.64C3693.24,888.96 3661.72,920.8 3622.04,944.16C3582.36,967.52 3537.56,979.2 3487.64,979.2ZM3487.64,892.8C3520.28,892.8 3549.4,884.96 3575,869.28C3600.6,853.6 3620.76,832 3635.48,804.48C3650.2,776.96 3657.56,746.24 3657.56,712.32C3657.56,677.76 3650.2,647.04 3635.48,620.16C3620.76,593.28 3600.6,572 3575,556.32C3549.4,540.64 3520.28,532.8 3487.64,532.8C3455.64,532.8 3426.68,540.64 3400.76,556.32C3374.84,572 3354.36,593.28 3339.32,620.16C3324.28,647.04 3316.76,677.76 3316.76,712.32C3316.76,746.24 3324.28,776.96 3339.32,804.48C3354.36,832 3374.84,853.6 3400.76,869.28C3426.68,884.96 3455.64,892.8 3487.64,892.8Z" style="fill:#03a9f4;fill-rule:nonzero;"/>
    <path d="M3933.08,647.04C3933.08,608.64 3942.52,574.24 3961.4,543.84C3980.28,513.44 4005.72,489.28 4037.72,471.36C4069.72,453.44 4104.92,444.48 4143.32,444.48C4181.72,444.48 4210.36,450.72 4229.24,463.2C4248.12,475.68 4255.32,490.56 4250.84,507.84C4248.92,516.8 4245.24,523.68 4239.8,528.48C4234.36,533.28 4228.12,536.32 4221.08,537.6C4214.04,538.88 4206.36,538.56 4198.04,536.64C4157.08,528.32 4120.28,527.68 4087.64,534.72C4055,541.76 4029.24,554.88 4010.36,574.08C3991.48,593.28 3982.04,617.6 3982.04,647.04L3933.08,647.04ZM3934.04,975.36C3918.68,975.36 3906.84,971.36 3898.52,963.36C3890.2,955.36 3886.04,943.36 3886.04,927.36L3886.04,498.24C3886.04,482.88 3890.2,471.04 3898.52,462.72C3906.84,454.4 3918.68,450.24 3934.04,450.24C3950.04,450.24 3962.04,454.24 3970.04,462.24C3978.04,470.24 3982.04,482.24 3982.04,498.24L3982.04,927.36C3982.04,942.72 3978.04,954.56 3970.04,962.88C3962.04,971.2 3950.04,975.36 3934.04,975.36Z" style="fill:#03a9f4;fill-rule:nonzero;"/>
    <path d="M4494.68,979.2C4447.96,979.2 4406.04,967.52 4368.92,944.16C4331.8,920.8 4302.52,889.12 4281.08,849.12C4259.64,809.12 4248.92,763.84 4248.92,713.28C4248.92,662.72 4260.6,617.28 4283.96,576.96C4307.32,536.64 4339,504.8 4379,481.44C4419,458.08 4463.96,446.4 4513.88,446.4C4563.8,446.4 4608.6,458.08 4648.28,481.44C4687.96,504.8 4719.48,536.64 4742.84,576.96C4766.2,617.28 4777.88,662.72 4777.88,713.28L4740.44,713.28C4740.44,763.84 4729.72,809.12 4708.28,849.12C4686.84,889.12 4657.56,920.8 4620.44,944.16C4583.32,967.52 4541.4,979.2 4494.68,979.2ZM4513.88,892.8C4546.52,892.8 4575.64,884.96 4601.24,869.28C4626.84,853.6 4647,832.16 4661.72,804.96C4676.44,777.76 4683.8,747.2 4683.8,713.28C4683.8,678.72 4676.44,647.84 4661.72,620.64C4647,593.44 4626.84,572 4601.24,556.32C4575.64,540.64 4546.52,532.8 4513.88,532.8C4481.88,532.8 4452.92,540.64 4427,556.32C4401.08,572 4380.6,593.44 4365.56,620.64C4350.52,647.84 4343,678.72 4343,713.28C4343,747.2 4350.52,777.76 4365.56,804.96C4380.6,832.16 4401.08,853.6 4427,869.28C4452.92,884.96 4481.88,892.8 4513.88,892.8ZM4728.92,976.32C4714.84,976.32 4703.16,971.68 4693.88,962.4C4684.6,953.12 4679.96,941.44 4679.96,927.36L4679.96,780.48L4698.2,678.72L4777.88,713.28L4777.88,927.36C4777.88,941.44 4773.24,953.12 4763.96,962.4C4754.68,971.68 4743,976.32 4728.92,976.32Z" style="fill:#03a9f4;fill-rule:nonzero;"/>
    <g>
        <path d="M5.271,686.464L276.539,686.464L352.328,762.191L236.968,877.456C232.547,882.467 231.166,883.556 227.742,889.339C225.178,893.671 223.17,898.308 221.765,903.142C220.359,907.975 219.568,912.965 219.41,917.995C219.173,925.536 220.373,933.105 222.93,940.203C224.637,944.938 226.932,949.44 229.764,953.603C234.008,959.843 239.431,965.261 245.676,969.502C249.842,972.331 254.348,974.625 259.087,976.33C263.826,978.034 268.761,979.137 273.776,979.61C281.293,980.32 288.928,979.599 296.179,977.494C303.43,975.39 310.264,971.91 316.23,967.287C318.216,965.747 320,963.965 321.886,962.304L599.537,684.883L752.885,838.104L599.537,882.861L1024,1024.23C915.317,1132.81 765.218,1200 599.537,1200C297.504,1200 47.255,976.705 5.271,686.464ZM497.458,8.721C530.638,3.034 564.744,0.07 599.537,0.07C930.942,0.07 1200,268.906 1200,600.035C1200,765.579 1132.75,915.553 1024.09,1024.15L882.598,600.035L837.803,753.256L572.369,488.042L658.936,401.547L978.83,401.547C981.338,401.389 983.862,401.389 986.355,401.074C993.846,400.128 1001.14,397.76 1007.76,394.126C1012.17,391.701 1016.26,388.731 1019.93,385.286C1023.61,381.841 1026.83,377.947 1029.53,373.698C1033.57,367.328 1036.4,360.203 1037.81,352.793C1038.76,347.849 1039.07,342.806 1038.76,337.783C1038.44,332.76 1037.49,327.797 1035.94,323.01C1033.6,315.835 1029.91,309.12 1025.1,303.307C1021.88,299.429 1018.2,295.97 1014.12,293.012C1010.05,290.054 1005.62,287.62 1000.93,285.767C994.681,283.293 992.922,283.279 986.355,282.027C983.847,281.869 981.338,281.712 978.83,281.554L779.028,281.554L848.906,211.734C850.568,209.851 852.352,208.067 853.893,206.083C858.52,200.122 862.002,193.294 864.109,186.049C865.514,181.216 866.305,176.225 866.463,171.195C866.7,163.655 865.501,156.086 862.943,148.987C860.385,141.889 856.481,135.293 851.488,129.634C848.157,125.859 844.364,122.517 840.198,119.689C833.953,115.448 826.914,112.405 819.545,110.759C817.092,110.211 814.58,109.973 812.097,109.58C809.585,109.501 807.073,109.422 804.561,109.344C802.058,109.58 799.536,109.66 797.053,110.053C789.596,111.233 782.38,113.829 775.881,117.669C770.092,121.089 769.002,122.469 763.987,126.887L497.458,393.195L497.458,8.721ZM134.683,220.415L514.619,600.035L437.247,677.343L184.313,424.619C179.298,420.202 178.208,418.822 172.42,415.402C168.084,412.84 163.443,410.833 158.606,409.429C156.192,408.728 153.7,408.333 151.247,407.785C148.745,407.549 146.242,407.312 143.74,407.076C141.227,407.155 138.705,407.076 136.203,407.313C128.686,408.023 121.321,410.161 114.593,413.586C110.105,415.871 105.923,418.711 102.144,422.039C98.366,425.367 95.022,429.157 92.191,433.32C87.947,439.56 84.901,446.593 83.254,453.955C82.155,458.867 81.679,463.897 81.837,468.928C81.995,473.958 82.786,478.948 84.192,483.781C86.298,491.026 89.78,497.854 94.408,503.815C95.948,505.8 97.732,507.583 99.395,509.467L156.446,566.471L0,566.471C7.24,435.551 56.57,315.767 134.683,220.415ZM377.366,293.2L219.601,135.567C266.755,97.003 319.878,65.46 377.366,42.542L377.366,293.2Z" style="fill:#03a9f4;"/>
    </g>
</svg>
