<?xml version="1.0" encoding="UTF-8" standalone="no"?>
<!DOCTYPE svg PUBLIC "-//W3C//DTD SVG 1.1//EN" "http://www.w3.org/Graphics/SVG/1.1/DTD/svg11.dtd">
<svg width="100%" height="100%" viewBox="0 0 4800 1200" version="1.1" xmlns="http://www.w3.org/2000/svg" xmlns:xlink="http://www.w3.org/1999/xlink" xml:space="preserve" xmlns:serif="http://www.serif.com/" style="fill-rule:evenodd;clip-rule:evenodd;stroke-linejoin:round;stroke-miterlimit:2;">
    <g transform="matrix(1,0,0,1,-184.181,378.908)">
        <g transform="matrix(960,0,0,960,1536.78,596.452)">
            <path d="M0.338,0.004C0.286,0.004 0.239,-0.008 0.198,-0.033C0.156,-0.057 0.123,-0.09 0.099,-0.132C0.074,-0.174 0.062,-0.221 0.062,-0.274C0.062,-0.327 0.073,-0.374 0.096,-0.416C0.118,-0.457 0.148,-0.49 0.187,-0.515C0.226,-0.539 0.269,-0.551 0.318,-0.551C0.357,-0.551 0.394,-0.543 0.427,-0.527C0.46,-0.51 0.488,-0.488 0.511,-0.46L0.511,-0.73C0.511,-0.745 0.516,-0.758 0.526,-0.767C0.535,-0.776 0.547,-0.781 0.562,-0.781C0.577,-0.781 0.59,-0.776 0.599,-0.767C0.608,-0.758 0.613,-0.745 0.613,-0.73L0.613,-0.274C0.613,-0.221 0.601,-0.174 0.577,-0.132C0.552,-0.09 0.519,-0.057 0.478,-0.033C0.437,-0.008 0.39,0.004 0.338,0.004ZM0.338,-0.086C0.372,-0.086 0.402,-0.094 0.429,-0.111C0.456,-0.127 0.477,-0.149 0.492,-0.178C0.507,-0.207 0.515,-0.239 0.515,-0.274C0.515,-0.31 0.507,-0.342 0.492,-0.37C0.477,-0.398 0.456,-0.42 0.429,-0.437C0.402,-0.453 0.372,-0.461 0.338,-0.461C0.305,-0.461 0.275,-0.453 0.248,-0.437C0.221,-0.42 0.199,-0.398 0.184,-0.37C0.168,-0.342 0.16,-0.31 0.16,-0.274C0.16,-0.239 0.168,-0.207 0.184,-0.178C0.199,-0.149 0.221,-0.127 0.248,-0.111C0.275,-0.094 0.305,-0.086 0.338,-0.086Z" style="fill:white;fill-rule:nonzero;"/>
        </g>
        <g transform="matrix(960,0,0,960,2173.26,596.452)">
            <path d="M0.347,0.004C0.292,0.004 0.243,-0.008 0.2,-0.032C0.157,-0.055 0.123,-0.088 0.099,-0.13C0.074,-0.171 0.062,-0.219 0.062,-0.273C0.062,-0.328 0.074,-0.376 0.097,-0.418C0.12,-0.459 0.151,-0.492 0.192,-0.516C0.233,-0.539 0.279,-0.551 0.332,-0.551C0.384,-0.551 0.429,-0.54 0.466,-0.517C0.503,-0.494 0.532,-0.462 0.552,-0.422C0.571,-0.381 0.581,-0.335 0.581,-0.282C0.581,-0.269 0.577,-0.259 0.568,-0.251C0.559,-0.242 0.548,-0.238 0.535,-0.238L0.132,-0.238L0.132,-0.318L0.532,-0.318L0.491,-0.29C0.49,-0.323 0.484,-0.353 0.471,-0.38C0.458,-0.406 0.44,-0.427 0.417,-0.442C0.394,-0.457 0.365,-0.465 0.332,-0.465C0.294,-0.465 0.262,-0.457 0.235,-0.44C0.208,-0.423 0.187,-0.401 0.173,-0.372C0.159,-0.343 0.152,-0.31 0.152,-0.273C0.152,-0.236 0.16,-0.204 0.177,-0.175C0.194,-0.146 0.217,-0.124 0.246,-0.107C0.275,-0.09 0.309,-0.082 0.347,-0.082C0.368,-0.082 0.389,-0.086 0.411,-0.094C0.432,-0.101 0.45,-0.11 0.463,-0.12C0.473,-0.127 0.484,-0.131 0.496,-0.132C0.507,-0.132 0.517,-0.128 0.526,-0.121C0.537,-0.111 0.543,-0.1 0.544,-0.088C0.545,-0.076 0.539,-0.066 0.528,-0.057C0.505,-0.039 0.477,-0.024 0.444,-0.013C0.41,-0.002 0.378,0.004 0.347,0.004Z" style="fill:white;fill-rule:nonzero;"/>
        </g>
        <g transform="matrix(960,0,0,960,2731.02,596.452)">
            <path d="M0.552,0.001C0.537,0.001 0.525,-0.004 0.516,-0.014C0.506,-0.023 0.501,-0.035 0.501,-0.05L0.501,-0.296C0.501,-0.334 0.494,-0.365 0.48,-0.389C0.466,-0.413 0.447,-0.431 0.424,-0.443C0.4,-0.454 0.373,-0.46 0.342,-0.46C0.314,-0.46 0.289,-0.454 0.266,-0.443C0.243,-0.432 0.225,-0.417 0.212,-0.398C0.199,-0.379 0.192,-0.357 0.192,-0.332L0.129,-0.332C0.129,-0.374 0.139,-0.412 0.16,-0.445C0.18,-0.478 0.208,-0.504 0.243,-0.523C0.278,-0.542 0.318,-0.552 0.362,-0.552C0.408,-0.552 0.449,-0.542 0.486,-0.523C0.522,-0.503 0.551,-0.474 0.572,-0.436C0.592,-0.398 0.603,-0.351 0.603,-0.296L0.603,-0.05C0.603,-0.035 0.598,-0.023 0.589,-0.014C0.579,-0.004 0.567,0.001 0.552,0.001ZM0.141,0.001C0.126,0.001 0.114,-0.004 0.105,-0.014C0.095,-0.023 0.09,-0.035 0.09,-0.05L0.09,-0.496C0.09,-0.511 0.095,-0.524 0.105,-0.533C0.114,-0.542 0.126,-0.547 0.141,-0.547C0.156,-0.547 0.169,-0.542 0.178,-0.533C0.187,-0.524 0.192,-0.511 0.192,-0.496L0.192,-0.05C0.192,-0.035 0.187,-0.023 0.178,-0.014C0.169,-0.004 0.156,0.001 0.141,0.001Z" style="fill:white;fill-rule:nonzero;"/>
        </g>
        <g transform="matrix(960,0,0,960,3347.34,596.452)">
            <path d="M0.338,0.004C0.286,0.004 0.239,-0.008 0.198,-0.033C0.156,-0.057 0.123,-0.09 0.099,-0.132C0.074,-0.174 0.062,-0.221 0.062,-0.274C0.062,-0.327 0.073,-0.374 0.096,-0.416C0.118,-0.457 0.148,-0.49 0.187,-0.515C0.226,-0.539 0.269,-0.551 0.318,-0.551C0.357,-0.551 0.394,-0.543 0.427,-0.527C0.46,-0.51 0.488,-0.488 0.511,-0.46L0.511,-0.73C0.511,-0.745 0.516,-0.758 0.526,-0.767C0.535,-0.776 0.547,-0.781 0.562,-0.781C0.577,-0.781 0.59,-0.776 0.599,-0.767C0.608,-0.758 0.613,-0.745 0.613,-0.73L0.613,-0.274C0.613,-0.221 0.601,-0.174 0.577,-0.132C0.552,-0.09 0.519,-0.057 0.478,-0.033C0.437,-0.008 0.39,0.004 0.338,0.004ZM0.338,-0.086C0.372,-0.086 0.402,-0.094 0.429,-0.111C0.456,-0.127 0.477,-0.149 0.492,-0.178C0.507,-0.207 0.515,-0.239 0.515,-0.274C0.515,-0.31 0.507,-0.342 0.492,-0.37C0.477,-0.398 0.456,-0.42 0.429,-0.437C0.402,-0.453 0.372,-0.461 0.338,-0.461C0.305,-0.461 0.275,-0.453 0.248,-0.437C0.221,-0.42 0.199,-0.398 0.184,-0.37C0.168,-0.342 0.16,-0.31 0.16,-0.274C0.16,-0.239 0.168,-0.207 0.184,-0.178C0.199,-0.149 0.221,-0.127 0.248,-0.111C0.275,-0.094 0.305,-0.086 0.338,-0.086Z" style="fill:white;fill-rule:nonzero;"/>
        </g>
        <g transform="matrix(960,0,0,960,3983.82,596.452)">
            <path d="M0.139,-0.342C0.139,-0.382 0.149,-0.418 0.169,-0.45C0.188,-0.481 0.215,-0.506 0.248,-0.525C0.281,-0.544 0.318,-0.553 0.358,-0.553C0.398,-0.553 0.428,-0.547 0.448,-0.534C0.467,-0.521 0.475,-0.505 0.47,-0.487C0.468,-0.478 0.464,-0.471 0.459,-0.466C0.453,-0.46 0.446,-0.457 0.439,-0.456C0.432,-0.455 0.424,-0.455 0.415,-0.457C0.372,-0.466 0.334,-0.466 0.3,-0.459C0.266,-0.452 0.239,-0.438 0.22,-0.418C0.2,-0.398 0.19,-0.373 0.19,-0.342L0.139,-0.342ZM0.14,-0C0.124,-0 0.112,-0.004 0.103,-0.013C0.094,-0.021 0.09,-0.033 0.09,-0.05L0.09,-0.497C0.09,-0.513 0.094,-0.525 0.103,-0.534C0.112,-0.543 0.124,-0.547 0.14,-0.547C0.157,-0.547 0.169,-0.543 0.178,-0.535C0.186,-0.526 0.19,-0.514 0.19,-0.497L0.19,-0.05C0.19,-0.034 0.186,-0.022 0.178,-0.013C0.169,-0.004 0.157,-0 0.14,-0Z" style="fill:white;fill-rule:nonzero;"/>
        </g>
        <g transform="matrix(960,0,0,960,4373.58,596.452)">
            <path d="M0.318,0.004C0.269,0.004 0.226,-0.008 0.187,-0.033C0.148,-0.057 0.118,-0.09 0.096,-0.132C0.073,-0.173 0.062,-0.22 0.062,-0.273C0.062,-0.326 0.074,-0.373 0.099,-0.415C0.123,-0.457 0.156,-0.49 0.198,-0.515C0.239,-0.539 0.286,-0.551 0.338,-0.551C0.39,-0.551 0.437,-0.539 0.478,-0.515C0.519,-0.49 0.552,-0.457 0.577,-0.415C0.601,-0.373 0.613,-0.326 0.613,-0.273L0.574,-0.273C0.574,-0.22 0.563,-0.173 0.541,-0.132C0.518,-0.09 0.488,-0.057 0.449,-0.033C0.41,-0.008 0.367,0.004 0.318,0.004ZM0.338,-0.086C0.372,-0.086 0.402,-0.094 0.429,-0.111C0.456,-0.127 0.477,-0.149 0.492,-0.178C0.507,-0.206 0.515,-0.238 0.515,-0.273C0.515,-0.309 0.507,-0.341 0.492,-0.37C0.477,-0.398 0.456,-0.42 0.429,-0.437C0.402,-0.453 0.372,-0.461 0.338,-0.461C0.305,-0.461 0.275,-0.453 0.248,-0.437C0.221,-0.42 0.199,-0.398 0.184,-0.37C0.168,-0.341 0.16,-0.309 0.16,-0.273C0.16,-0.238 0.168,-0.206 0.184,-0.178C0.199,-0.149 0.221,-0.127 0.248,-0.111C0.275,-0.094 0.305,-0.086 0.338,-0.086ZM0.562,0.001C0.547,0.001 0.535,-0.004 0.526,-0.014C0.516,-0.023 0.511,-0.035 0.511,-0.05L0.511,-0.203L0.53,-0.309L0.613,-0.273L0.613,-0.05C0.613,-0.035 0.608,-0.023 0.599,-0.014C0.589,-0.004 0.577,0.001 0.562,0.001Z" style="fill:white;fill-rule:nonzero;"/>
        </g>
    </g>
    <g transform="matrix(1.1257,0,0,1.1257,-51.7824,-111.445)">
        <circle cx="579" cy="632" r="533" style="fill:white;"/>
    </g>
    <g transform="matrix(1.00077,0,0,0.999941,-57.8663,0.0704028)">
        <path d="M63.089,686.434L334.147,686.434L409.878,762.165L294.607,877.437C290.189,882.448 288.809,883.537 285.388,889.321C282.826,893.653 280.82,898.291 279.415,903.124C278.011,907.957 277.221,912.948 277.063,917.979C276.826,925.52 278.025,933.089 280.58,940.188C282.285,944.923 284.579,949.426 287.408,953.589C291.649,959.829 297.068,965.248 303.308,969.488C307.471,972.317 311.973,974.612 316.709,976.316C321.444,978.021 326.376,979.124 331.387,979.597C338.898,980.307 346.527,979.586 353.772,977.481C361.018,975.376 367.846,971.897 373.807,967.273C375.792,965.733 377.575,963.951 379.459,962.29L656.897,684.853L810.126,838.083L656.897,882.843L1081.04,1024.22C972.433,1132.8 822.45,1200 656.897,1200C355.096,1200 105.041,976.692 63.089,686.434ZM554.897,8.652C588.05,2.963 622.13,0 656.897,0C988.046,0 1256.9,268.851 1256.9,600C1256.9,765.553 1189.7,915.536 1081.12,1024.14L939.739,600L894.979,753.23L629.749,488L716.249,401.5L1035.9,401.5C1038.4,401.342 1040.92,401.342 1043.42,401.027C1050.9,400.081 1058.19,397.713 1064.8,394.078C1069.21,391.654 1073.3,388.684 1076.97,385.238C1080.64,381.793 1083.86,377.899 1086.56,373.65C1090.6,367.279 1093.42,360.154 1094.83,352.743C1095.78,347.799 1096.09,342.756 1095.78,337.733C1095.46,332.709 1094.52,327.746 1092.96,322.959C1090.63,315.784 1086.94,309.068 1082.13,303.255C1078.92,299.376 1075.24,295.917 1071.16,292.959C1067.09,290.001 1062.66,287.566 1057.98,285.713C1051.74,283.24 1049.98,283.225 1043.42,281.973C1040.91,281.815 1038.4,281.658 1035.9,281.5L836.249,281.5L906.073,211.676C907.734,209.792 909.517,208.009 911.056,206.024C915.68,200.063 919.159,193.235 921.264,185.989C922.668,181.156 923.459,176.165 923.617,171.135C923.854,163.594 922.655,156.024 920.099,148.926C917.544,141.827 913.643,135.231 908.653,129.571C905.325,125.796 901.534,122.454 897.372,119.625C891.132,115.384 884.098,112.341 876.735,110.695C874.284,110.147 871.774,109.909 869.293,109.516C866.783,109.437 864.272,109.358 861.762,109.28C859.261,109.516 856.741,109.596 854.261,109.989C846.809,111.169 839.598,113.765 833.104,117.605C827.32,121.026 826.231,122.406 821.22,126.824L554.897,393.147L554.897,8.652ZM192.401,220.357L572.044,600L494.731,677.312L241.992,424.574C236.982,420.156 235.892,418.776 230.109,415.355C225.776,412.793 221.139,410.787 216.305,409.382C213.894,408.682 211.403,408.287 208.952,407.739C206.452,407.502 203.951,407.266 201.451,407.03C198.94,407.108 196.42,407.03 193.92,407.266C186.408,407.976 179.049,410.114 172.327,413.54C167.842,415.825 163.663,418.665 159.887,421.993C156.112,425.322 152.77,429.112 149.941,433.275C145.7,439.515 142.657,446.548 141.011,453.911C139.913,458.823 139.438,463.854 139.596,468.885C139.754,473.915 140.544,478.906 141.948,483.739C144.053,490.985 147.533,497.813 152.157,503.774C153.696,505.759 155.479,507.542 157.14,509.426L214.147,566.434L57.822,566.434C65.056,435.507 114.348,315.715 192.401,220.357ZM434.897,293.147L277.254,135.504C324.371,96.938 377.453,65.393 434.897,42.474L434.897,293.147Z" style="fill:rgb(3,169,244);"/>
    </g>
</svg>
