<?xml version="1.0" encoding="UTF-8" standalone="no"?>
<!DOCTYPE svg PUBLIC "-//W3C//DTD SVG 1.1//EN" "http://www.w3.org/Graphics/SVG/1.1/DTD/svg11.dtd">
<svg width="100%" height="100%" viewBox="0 0 1200 1200" version="1.1" xmlns="http://www.w3.org/2000/svg" xmlns:xlink="http://www.w3.org/1999/xlink" xml:space="preserve" xmlns:serif="http://www.serif.com/" style="fill-rule:evenodd;clip-rule:evenodd;stroke-linejoin:round;stroke-miterlimit:2;">
    <g transform="matrix(1,0,0,1,-5.68434e-14,-0.0704028)">
        <g transform="matrix(1.1257,0,0,1.1257,-51.7824,-111.445)">
            <circle cx="579" cy="632" r="533" style="fill:white;"/>
        </g>
        <g transform="matrix(1.00077,0,0,0.999941,-57.8663,0.0704028)">
            <path d="M63.089,686.434L334.147,686.434L409.878,762.165L294.607,877.437C290.189,882.448 288.809,883.537 285.388,889.321C282.826,893.653 280.82,898.291 279.415,903.124C278.011,907.957 277.221,912.948 277.063,917.979C276.826,925.52 278.025,933.089 280.58,940.188C282.285,944.923 284.579,949.426 287.408,953.589C291.649,959.829 297.068,965.248 303.308,969.488C307.471,972.317 311.973,974.612 316.709,976.316C321.444,978.021 326.376,979.124 331.387,979.597C338.898,980.307 346.527,979.586 353.772,977.481C361.018,975.376 367.846,971.897 373.807,967.273C375.792,965.733 377.575,963.951 379.459,962.29L656.897,684.853L810.126,838.083L656.897,882.843L1081.04,1024.22C972.433,1132.8 822.45,1200 656.897,1200C355.096,1200 105.041,976.692 63.089,686.434ZM554.897,8.652C588.05,2.963 622.13,0 656.897,0C988.046,0 1256.9,268.851 1256.9,600C1256.9,765.553 1189.7,915.536 1081.12,1024.14L939.739,600L894.979,753.23L629.749,488L716.249,401.5L1035.9,401.5C1038.4,401.342 1040.92,401.342 1043.42,401.027C1050.9,400.081 1058.19,397.713 1064.8,394.078C1069.21,391.654 1073.3,388.684 1076.97,385.238C1080.64,381.793 1083.86,377.899 1086.56,373.65C1090.6,367.279 1093.42,360.154 1094.83,352.743C1095.78,347.799 1096.09,342.756 1095.78,337.733C1095.46,332.709 1094.52,327.746 1092.96,322.959C1090.63,315.784 1086.94,309.068 1082.13,303.255C1078.92,299.376 1075.24,295.917 1071.16,292.959C1067.09,290.001 1062.66,287.566 1057.98,285.713C1051.74,283.24 1049.98,283.225 1043.42,281.973C1040.91,281.815 1038.4,281.658 1035.9,281.5L836.249,281.5L906.073,211.676C907.734,209.792 909.517,208.009 911.056,206.024C915.68,200.063 919.159,193.235 921.264,185.989C922.668,181.156 923.459,176.165 923.617,171.135C923.854,163.594 922.655,156.024 920.099,148.926C917.544,141.827 913.643,135.231 908.653,129.571C905.325,125.796 901.534,122.454 897.372,119.625C891.132,115.384 884.098,112.341 876.735,110.695C874.284,110.147 871.774,109.909 869.293,109.516C866.783,109.437 864.272,109.358 861.762,109.28C859.261,109.516 856.741,109.596 854.261,109.989C846.809,111.169 839.598,113.765 833.104,117.605C827.32,121.026 826.231,122.406 821.22,126.824L554.897,393.147L554.897,8.652ZM192.401,220.357L572.044,600L494.731,677.312L241.992,424.574C236.982,420.156 235.892,418.776 230.109,415.355C225.776,412.793 221.139,410.787 216.305,409.382C213.894,408.682 211.403,408.287 208.952,407.739C206.452,407.502 203.951,407.266 201.451,407.03C198.94,407.108 196.42,407.03 193.92,407.266C186.408,407.976 179.049,410.114 172.327,413.54C167.842,415.825 163.663,418.665 159.887,421.993C156.112,425.322 152.77,429.112 149.941,433.275C145.7,439.515 142.657,446.548 141.011,453.911C139.913,458.823 139.438,463.854 139.596,468.885C139.754,473.915 140.544,478.906 141.948,483.739C144.053,490.985 147.533,497.813 152.157,503.774C153.696,505.759 155.479,507.542 157.14,509.426L214.147,566.434L57.822,566.434C65.056,435.507 114.348,315.715 192.401,220.357ZM434.897,293.147L277.254,135.504C324.371,96.938 377.453,65.393 434.897,42.474L434.897,293.147Z" style="fill:rgb(3,169,244);"/>
        </g>
    </g>
</svg>
