<?xml version="1.0" encoding="UTF-8" standalone="no"?>
<!DOCTYPE svg PUBLIC "-//W3C//DTD SVG 1.1//EN" "http://www.w3.org/Graphics/SVG/1.1/DTD/svg11.dtd">
<svg width="100%" height="100%" viewBox="0 0 1200 1200" version="1.1" xmlns="http://www.w3.org/2000/svg" xmlns:xlink="http://www.w3.org/1999/xlink" xml:space="preserve" xmlns:serif="http://www.serif.com/" style="fill-rule:evenodd;clip-rule:evenodd;stroke-linejoin:round;stroke-miterlimit:2;">
    <g>
        <path d="M5.271,686.394L276.539,686.394L352.328,762.121L236.968,877.386C232.547,882.396 231.166,883.485 227.742,889.269C225.178,893.601 223.17,898.238 221.765,903.071C220.359,907.904 219.568,912.895 219.41,917.925C219.173,925.466 220.373,933.035 222.93,940.133C224.637,944.868 226.932,949.37 229.764,953.533C234.008,959.772 239.431,965.191 245.676,969.432C249.842,972.26 254.348,974.554 259.087,976.259C263.826,977.964 268.761,979.066 273.776,979.54C281.293,980.25 288.928,979.529 296.179,977.424C303.43,975.319 310.264,971.84 316.23,967.216C318.216,965.677 320,963.894 321.886,962.234L599.537,684.813L752.885,838.033L599.537,882.791L1024,1024.16C915.317,1132.74 765.218,1199.93 599.537,1199.93C297.504,1199.93 47.255,976.635 5.271,686.394ZM497.458,8.651C530.638,2.963 564.744,-0 599.537,-0C930.942,-0 1200,268.835 1200,599.965C1200,765.508 1132.75,915.482 1024.09,1024.08L882.598,599.965L837.803,753.186L572.369,487.971L658.936,401.476L978.83,401.476C981.338,401.319 983.862,401.318 986.355,401.003C993.846,400.058 1001.14,397.69 1007.76,394.055C1012.17,391.631 1016.26,388.661 1019.93,385.216C1023.61,381.77 1026.83,377.877 1029.53,373.628C1033.57,367.258 1036.4,360.133 1037.81,352.722C1038.76,347.778 1039.07,342.736 1038.76,337.713C1038.44,332.69 1037.49,327.727 1035.94,322.94C1033.6,315.765 1029.91,309.05 1025.1,303.237C1021.88,299.359 1018.2,295.9 1014.12,292.942C1010.05,289.984 1005.62,287.549 1000.93,285.697C994.681,283.223 992.922,283.208 986.355,281.957C983.847,281.799 981.338,281.641 978.83,281.483L779.028,281.483L848.906,211.664C850.568,209.78 852.352,207.997 853.893,206.012C858.52,200.051 862.002,193.223 864.109,185.979C865.514,181.146 866.305,176.155 866.463,171.125C866.7,163.584 865.501,156.015 862.943,148.917C860.385,141.819 856.481,135.223 851.488,129.564C848.157,125.788 844.364,122.447 840.198,119.618C833.953,115.378 826.914,112.334 819.545,110.688C817.092,110.141 814.58,109.903 812.097,109.51C809.585,109.431 807.073,109.352 804.561,109.273C802.058,109.51 799.536,109.589 797.053,109.982C789.596,111.162 782.38,113.758 775.881,117.599C770.092,121.019 769.002,122.399 763.987,126.816L497.458,393.124L497.458,8.651ZM134.683,220.344L514.619,599.965L437.247,677.273L184.313,424.549C179.298,420.131 178.208,418.752 172.42,415.331C168.084,412.769 163.443,410.762 158.606,409.358C156.192,408.658 153.7,408.263 151.247,407.715C148.745,407.478 146.242,407.242 143.74,407.006C141.227,407.085 138.705,407.006 136.203,407.242C128.686,407.952 121.321,410.09 114.593,413.515C110.105,415.8 105.923,418.64 102.144,421.969C98.366,425.297 95.022,429.087 92.191,433.25C87.947,439.489 84.901,446.522 83.254,453.885C82.155,458.796 81.679,463.827 81.837,468.857C81.995,473.888 82.786,478.878 84.192,483.711C86.298,490.956 89.78,497.784 94.408,503.745C95.948,505.729 97.732,507.513 99.395,509.397L156.446,566.401L0,566.401C7.24,435.481 56.57,315.696 134.683,220.344ZM377.366,293.13L219.601,135.496C266.755,96.932 319.878,65.389 377.366,42.472L377.366,293.13Z" style="fill:#03a9f4;"/>
    </g>
</svg>
