<?xml version="1.0" encoding="UTF-8" standalone="no"?>
<!DOCTYPE svg PUBLIC "-//W3C//DTD SVG 1.1//EN" "http://www.w3.org/Graphics/SVG/1.1/DTD/svg11.dtd">
<svg width="100%" height="100%" viewBox="0 0 3366 754" version="1.1" xmlns="http://www.w3.org/2000/svg" xmlns:xlink="http://www.w3.org/1999/xlink" xml:space="preserve" xmlns:serif="http://www.serif.com/" style="fill-rule:evenodd;clip-rule:evenodd;stroke-linejoin:round;stroke-miterlimit:2;">
    <path d="M264.96,753.6C215.04,753.6 170.08,741.92 130.08,718.56C90.08,695.2 58.4,663.36 35.04,623.04C11.68,582.72 0,537.28 0,486.72C0,436.16 10.72,390.88 32.16,350.88C53.6,310.88 82.88,279.2 120,255.84C157.12,232.48 199.04,220.8 245.76,220.8C283.52,220.8 318.4,228.64 350.4,244.32C382.4,260 409.28,281.28 431.04,308.16L431.04,48.96C431.04,34.24 435.68,22.4 444.96,13.44C454.24,4.48 465.92,0 480,0C494.72,0 506.56,4.48 515.52,13.44C524.48,22.4 528.96,34.24 528.96,48.96L528.96,486.72C528.96,537.28 517.28,582.72 493.92,623.04C470.56,663.36 439.04,695.2 399.36,718.56C359.68,741.92 314.88,753.6 264.96,753.6ZM264.96,667.2C297.6,667.2 326.72,659.36 352.32,643.68C377.92,628 398.08,606.4 412.8,578.88C427.52,551.36 434.88,520.64 434.88,486.72C434.88,452.16 427.52,421.44 412.8,394.56C398.08,367.68 377.92,346.4 352.32,330.72C326.72,315.04 297.6,307.2 264.96,307.2C232.96,307.2 204,315.04 178.08,330.72C152.16,346.4 131.68,367.68 116.64,394.56C101.6,421.44 94.08,452.16 94.08,486.72C94.08,520.64 101.6,551.36 116.64,578.88C131.68,606.4 152.16,628 178.08,643.68C204,659.36 232.96,667.2 264.96,667.2Z" style="fill:#fff;fill-rule:nonzero;"/>
    <path d="M910.08,753.6C856.96,753.6 809.76,742.24 768.48,719.52C727.2,696.8 694.88,665.44 671.52,625.44C648.16,585.44 636.48,539.52 636.48,487.68C636.48,435.2 647.52,388.96 669.6,348.96C691.68,308.96 722.24,277.6 761.28,254.88C800.32,232.16 845.12,220.8 895.68,220.8C945.6,220.8 988.48,231.84 1024.32,253.92C1060.16,276 1087.52,306.4 1106.4,345.12C1125.28,383.84 1134.72,428.48 1134.72,479.04C1134.72,491.2 1130.56,501.28 1122.24,509.28C1113.92,517.28 1103.36,521.28 1090.56,521.28L703.68,521.28L703.68,444.48L1087.68,444.48L1048.32,471.36C1047.68,439.36 1041.28,410.72 1029.12,385.44C1016.96,360.16 999.68,340.16 977.28,325.44C954.88,310.72 927.68,303.36 895.68,303.36C859.2,303.36 828,311.36 802.08,327.36C776.16,343.36 756.48,365.28 743.04,393.12C729.6,420.96 722.88,452.48 722.88,487.68C722.88,522.88 730.88,554.24 746.88,581.76C762.88,609.28 784.96,631.04 813.12,647.04C841.28,663.04 873.6,671.04 910.08,671.04C929.92,671.04 950.24,667.36 971.04,660C991.84,652.64 1008.64,644.16 1021.44,634.56C1031.04,627.52 1041.44,623.84 1052.64,623.52C1063.84,623.2 1073.6,626.56 1081.92,633.6C1092.8,643.2 1098.56,653.76 1099.2,665.28C1099.84,676.8 1094.72,686.72 1083.84,695.04C1062.08,712.32 1035.04,726.4 1002.72,737.28C970.4,748.16 939.52,753.6 910.08,753.6Z" style="fill:#fff;fill-rule:nonzero;"/>
    <path d="M1664.64,750.72C1650.56,750.72 1638.88,746.08 1629.6,736.8C1620.32,727.52 1615.68,715.84 1615.68,701.76L1615.68,465.6C1615.68,429.12 1608.96,399.36 1595.52,376.32C1582.08,353.28 1564,336.16 1541.28,324.96C1518.56,313.76 1492.48,308.16 1463.04,308.16C1436.16,308.16 1411.84,313.6 1390.08,324.48C1368.32,335.36 1351.04,349.92 1338.24,368.16C1325.44,386.4 1319.04,407.36 1319.04,431.04L1258.56,431.04C1258.56,390.72 1268.32,354.72 1287.84,323.04C1307.36,291.36 1334.08,266.24 1368,247.68C1401.92,229.12 1440,219.84 1482.24,219.84C1526.4,219.84 1565.92,229.28 1600.8,248.16C1635.68,267.04 1663.2,294.72 1683.36,331.2C1703.52,367.68 1713.6,412.48 1713.6,465.6L1713.6,701.76C1713.6,715.84 1708.96,727.52 1699.68,736.8C1690.4,746.08 1678.72,750.72 1664.64,750.72ZM1270.08,750.72C1256,750.72 1244.32,746.08 1235.04,736.8C1225.76,727.52 1221.12,715.84 1221.12,701.76L1221.12,273.6C1221.12,258.88 1225.76,247.04 1235.04,238.08C1244.32,229.12 1256,224.64 1270.08,224.64C1284.8,224.64 1296.64,229.12 1305.6,238.08C1314.56,247.04 1319.04,258.88 1319.04,273.6L1319.04,701.76C1319.04,715.84 1314.56,727.52 1305.6,736.8C1296.64,746.08 1284.8,750.72 1270.08,750.72Z" style="fill:#fff;fill-rule:nonzero;"/>
    <path d="M2075.52,753.6C2025.6,753.6 1980.64,741.92 1940.64,718.56C1900.64,695.2 1868.96,663.36 1845.6,623.04C1822.24,582.72 1810.56,537.28 1810.56,486.72C1810.56,436.16 1821.28,390.88 1842.72,350.88C1864.16,310.88 1893.44,279.2 1930.56,255.84C1967.68,232.48 2009.6,220.8 2056.32,220.8C2094.08,220.8 2128.96,228.64 2160.96,244.32C2192.96,260 2219.84,281.28 2241.6,308.16L2241.6,48.96C2241.6,34.24 2246.24,22.4 2255.52,13.44C2264.8,4.48 2276.48,0 2290.56,0C2305.28,0 2317.12,4.48 2326.08,13.44C2335.04,22.4 2339.52,34.24 2339.52,48.96L2339.52,486.72C2339.52,537.28 2327.84,582.72 2304.48,623.04C2281.12,663.36 2249.6,695.2 2209.92,718.56C2170.24,741.92 2125.44,753.6 2075.52,753.6ZM2075.52,667.2C2108.16,667.2 2137.28,659.36 2162.88,643.68C2188.48,628 2208.64,606.4 2223.36,578.88C2238.08,551.36 2245.44,520.64 2245.44,486.72C2245.44,452.16 2238.08,421.44 2223.36,394.56C2208.64,367.68 2188.48,346.4 2162.88,330.72C2137.28,315.04 2108.16,307.2 2075.52,307.2C2043.52,307.2 2014.56,315.04 1988.64,330.72C1962.72,346.4 1942.24,367.68 1927.2,394.56C1912.16,421.44 1904.64,452.16 1904.64,486.72C1904.64,520.64 1912.16,551.36 1927.2,578.88C1942.24,606.4 1962.72,628 1988.64,643.68C2014.56,659.36 2043.52,667.2 2075.52,667.2Z" style="fill:#fff;fill-rule:nonzero;"/>
    <path d="M2520.96,421.44C2520.96,383.04 2530.4,348.64 2549.28,318.24C2568.16,287.84 2593.6,263.68 2625.6,245.76C2657.6,227.84 2692.8,218.88 2731.2,218.88C2769.6,218.88 2798.24,225.12 2817.12,237.6C2836,250.08 2843.2,264.96 2838.72,282.24C2836.8,291.2 2833.12,298.08 2827.68,302.88C2822.24,307.68 2816,310.72 2808.96,312C2801.92,313.28 2794.24,312.96 2785.92,311.04C2744.96,302.72 2708.16,302.08 2675.52,309.12C2642.88,316.16 2617.12,329.28 2598.24,348.48C2579.36,367.68 2569.92,392 2569.92,421.44L2520.96,421.44ZM2521.92,749.76C2506.56,749.76 2494.72,745.76 2486.4,737.76C2478.08,729.76 2473.92,717.76 2473.92,701.76L2473.92,272.64C2473.92,257.28 2478.08,245.44 2486.4,237.12C2494.72,228.8 2506.56,224.64 2521.92,224.64C2537.92,224.64 2549.92,228.64 2557.92,236.64C2565.92,244.64 2569.92,256.64 2569.92,272.64L2569.92,701.76C2569.92,717.12 2565.92,728.96 2557.92,737.28C2549.92,745.6 2537.92,749.76 2521.92,749.76Z" style="fill:#fff;fill-rule:nonzero;"/>
    <path d="M3082.56,753.6C3035.84,753.6 2993.92,741.92 2956.8,718.56C2919.68,695.2 2890.4,663.52 2868.96,623.52C2847.52,583.52 2836.8,538.24 2836.8,487.68C2836.8,437.12 2848.48,391.68 2871.84,351.36C2895.2,311.04 2926.88,279.2 2966.88,255.84C3006.88,232.48 3051.84,220.8 3101.76,220.8C3151.68,220.8 3196.48,232.48 3236.16,255.84C3275.84,279.2 3307.36,311.04 3330.72,351.36C3354.08,391.68 3365.76,437.12 3365.76,487.68L3328.32,487.68C3328.32,538.24 3317.6,583.52 3296.16,623.52C3274.72,663.52 3245.44,695.2 3208.32,718.56C3171.2,741.92 3129.28,753.6 3082.56,753.6ZM3101.76,667.2C3134.4,667.2 3163.52,659.36 3189.12,643.68C3214.72,628 3234.88,606.56 3249.6,579.36C3264.32,552.16 3271.68,521.6 3271.68,487.68C3271.68,453.12 3264.32,422.24 3249.6,395.04C3234.88,367.84 3214.72,346.4 3189.12,330.72C3163.52,315.04 3134.4,307.2 3101.76,307.2C3069.76,307.2 3040.8,315.04 3014.88,330.72C2988.96,346.4 2968.48,367.84 2953.44,395.04C2938.4,422.24 2930.88,453.12 2930.88,487.68C2930.88,521.6 2938.4,552.16 2953.44,579.36C2968.48,606.56 2988.96,628 3014.88,643.68C3040.8,659.36 3069.76,667.2 3101.76,667.2ZM3316.8,750.72C3302.72,750.72 3291.04,746.08 3281.76,736.8C3272.48,727.52 3267.84,715.84 3267.84,701.76L3267.84,554.88L3286.08,453.12L3365.76,487.68L3365.76,701.76C3365.76,715.84 3361.12,727.52 3351.84,736.8C3342.56,746.08 3330.88,750.72 3316.8,750.72Z" style="fill:#fff;fill-rule:nonzero;"/>
</svg>
